/* XPM */
static char *d7b6f23c94b34f5bf8bf9935cb06b847O5uhJkhSu9PhQKMM[] = {
/* columns rows colors chars-per-pixel */
"12 13 6 1 ",
"  c None",
". c #311047",
"X c #B25C34",
"o c #8B2747",
"O c #E2AE60",
"+ c #F7EFBA",
/* pixels */
"    ....    ",
"   .+X.X.   ",
"   .+X.X.   ",
"   .+X.X.   ",
"   .+X.X.   ",
"  ..++....  ",
" .O++++++O. ",
" .+++++.++. ",
".O+++++.++O.",
".+++++o++++.",
".+++++++.++.",
" .O++++++.. ",
"  .O++++O.  "
};
