/* XPM */
static char *_4044d9ded284180e1a2dd11d9061772HBl4yPXHfx6SQEeL[] = {
/* columns rows colors chars-per-pixel */
"14 29 7 1 ",
"  c None",
". c #311047",
"X c #B25C34",
"o c #8B2747",
"O c #6C855D",
"+ c #9FB364",
"@ c #E5DB48",
/* pixels */
"     ....     ",
"    .++++.    ",
"   .++++++.   ",
"  .+++@++++.  ",
" .+++@++++++. ",
" .++++++++++. ",
" .+++@++++++. ",
".O.++++++++.O.",
".OO..++++..OO.",
".+OOO....OOO+.",
".+++OOOOOO+++.",
" .++++++++++. ",
".O..++++++..O.",
".OOO......OOO.",
".++OOOOOOOO++.",
".++++++++++++.",
" .++++++++++. ",
".O..++++++..O.",
".+OO......OO+.",
".++OOOOOOOO++.",
" .++++++++++. ",
"  ..++++++..  ",
"   ........   ",
"  .oooooooo.  ",
"  .XXooooXX.  ",
" .Xo.XXXX.oX. ",
" ...oXXXXo... ",
"  .oX.oX.Xo.  ",
"   .. .. ..   "
};
